<mxfile host="app.diagrams.net" modified="2024-03-04T17:13:54.333Z" agent="Mozilla/5.0 (Windows NT 10.0; Win64; x64) AppleWebKit/537.36 (KHTML, like Gecko) Chrome/122.0.0.0 Safari/537.36" etag="bcHWDpb6c5H0Feoqw35T" version="24.0.1" type="device">
  <diagram name="Page-1" id="zsYLoXzAz3LiTmuhM9Rq">
    <mxGraphModel dx="4600" dy="3597" grid="1" gridSize="10" guides="1" tooltips="1" connect="1" arrows="1" fold="1" page="1" pageScale="1" pageWidth="1100" pageHeight="1700" math="0" shadow="0">
      <root>
        <mxCell id="0" />
        <mxCell id="1" parent="0" />
        <mxCell id="-HtrZDxXVbjoKsawyvyA-41" value="" style="edgeStyle=orthogonalEdgeStyle;rounded=0;orthogonalLoop=1;jettySize=auto;html=1;" edge="1" parent="1" source="-HtrZDxXVbjoKsawyvyA-1" target="-HtrZDxXVbjoKsawyvyA-2">
          <mxGeometry relative="1" as="geometry" />
        </mxCell>
        <mxCell id="-HtrZDxXVbjoKsawyvyA-1" value="&lt;span style=&quot;font-size: 17px;&quot;&gt;START&lt;/span&gt;" style="ellipse;whiteSpace=wrap;html=1;fontSize=17;" vertex="1" parent="1">
          <mxGeometry x="490" y="-130" width="120" height="120" as="geometry" />
        </mxCell>
        <mxCell id="-HtrZDxXVbjoKsawyvyA-42" style="edgeStyle=orthogonalEdgeStyle;rounded=0;orthogonalLoop=1;jettySize=auto;html=1;" edge="1" parent="1" source="-HtrZDxXVbjoKsawyvyA-2" target="-HtrZDxXVbjoKsawyvyA-3">
          <mxGeometry relative="1" as="geometry" />
        </mxCell>
        <mxCell id="-HtrZDxXVbjoKsawyvyA-44" style="edgeStyle=orthogonalEdgeStyle;rounded=0;orthogonalLoop=1;jettySize=auto;html=1;entryX=0.5;entryY=0;entryDx=0;entryDy=0;" edge="1" parent="1" source="-HtrZDxXVbjoKsawyvyA-2" target="-HtrZDxXVbjoKsawyvyA-4">
          <mxGeometry relative="1" as="geometry" />
        </mxCell>
        <mxCell id="-HtrZDxXVbjoKsawyvyA-47" style="edgeStyle=orthogonalEdgeStyle;rounded=0;orthogonalLoop=1;jettySize=auto;html=1;" edge="1" parent="1" source="-HtrZDxXVbjoKsawyvyA-2" target="-HtrZDxXVbjoKsawyvyA-5">
          <mxGeometry relative="1" as="geometry" />
        </mxCell>
        <mxCell id="-HtrZDxXVbjoKsawyvyA-48" style="edgeStyle=orthogonalEdgeStyle;rounded=0;orthogonalLoop=1;jettySize=auto;html=1;" edge="1" parent="1" source="-HtrZDxXVbjoKsawyvyA-2" target="-HtrZDxXVbjoKsawyvyA-6">
          <mxGeometry relative="1" as="geometry" />
        </mxCell>
        <mxCell id="-HtrZDxXVbjoKsawyvyA-2" value="&lt;font style=&quot;font-size: 17px;&quot;&gt;Read all sensor data&lt;/font&gt;" style="rounded=0;whiteSpace=wrap;html=1;fontSize=17;" vertex="1" parent="1">
          <mxGeometry x="490" y="160" width="120" height="120" as="geometry" />
        </mxCell>
        <mxCell id="-HtrZDxXVbjoKsawyvyA-49" style="edgeStyle=orthogonalEdgeStyle;rounded=0;orthogonalLoop=1;jettySize=auto;html=1;entryX=0.5;entryY=0;entryDx=0;entryDy=0;" edge="1" parent="1" source="-HtrZDxXVbjoKsawyvyA-3" target="-HtrZDxXVbjoKsawyvyA-8">
          <mxGeometry relative="1" as="geometry" />
        </mxCell>
        <mxCell id="-HtrZDxXVbjoKsawyvyA-3" value="Accelemeter sensor 2&amp;nbsp;&lt;div&gt;detect data&lt;/div&gt;" style="rounded=0;whiteSpace=wrap;html=1;fontSize=17;" vertex="1" parent="1">
          <mxGeometry x="-8" y="320" width="120" height="120" as="geometry" />
        </mxCell>
        <mxCell id="-HtrZDxXVbjoKsawyvyA-50" style="edgeStyle=orthogonalEdgeStyle;rounded=0;orthogonalLoop=1;jettySize=auto;html=1;entryX=0.5;entryY=0;entryDx=0;entryDy=0;" edge="1" parent="1" source="-HtrZDxXVbjoKsawyvyA-4" target="-HtrZDxXVbjoKsawyvyA-7">
          <mxGeometry relative="1" as="geometry" />
        </mxCell>
        <mxCell id="-HtrZDxXVbjoKsawyvyA-4" value="Accelemeter sensor 1&amp;nbsp;&lt;div&gt;detect data&lt;/div&gt;" style="rounded=0;whiteSpace=wrap;html=1;fontSize=17;" vertex="1" parent="1">
          <mxGeometry x="-208" y="320" width="120" height="120" as="geometry" />
        </mxCell>
        <mxCell id="-HtrZDxXVbjoKsawyvyA-54" style="edgeStyle=orthogonalEdgeStyle;rounded=0;orthogonalLoop=1;jettySize=auto;html=1;entryX=0.5;entryY=0;entryDx=0;entryDy=0;" edge="1" parent="1" source="-HtrZDxXVbjoKsawyvyA-5" target="-HtrZDxXVbjoKsawyvyA-10">
          <mxGeometry relative="1" as="geometry" />
        </mxCell>
        <mxCell id="-HtrZDxXVbjoKsawyvyA-5" value="Temp sensor detect data" style="rounded=0;whiteSpace=wrap;html=1;fontSize=17;" vertex="1" parent="1">
          <mxGeometry x="752" y="320" width="120" height="120" as="geometry" />
        </mxCell>
        <mxCell id="-HtrZDxXVbjoKsawyvyA-61" style="edgeStyle=orthogonalEdgeStyle;rounded=0;orthogonalLoop=1;jettySize=auto;html=1;entryX=0.5;entryY=0;entryDx=0;entryDy=0;" edge="1" parent="1" source="-HtrZDxXVbjoKsawyvyA-6" target="-HtrZDxXVbjoKsawyvyA-11">
          <mxGeometry relative="1" as="geometry" />
        </mxCell>
        <mxCell id="-HtrZDxXVbjoKsawyvyA-6" value="Relative humidity sensor detect data" style="rounded=0;whiteSpace=wrap;html=1;fontSize=17;" vertex="1" parent="1">
          <mxGeometry x="1250" y="320" width="120" height="120" as="geometry" />
        </mxCell>
        <mxCell id="-HtrZDxXVbjoKsawyvyA-52" style="edgeStyle=orthogonalEdgeStyle;rounded=0;orthogonalLoop=1;jettySize=auto;html=1;entryX=0;entryY=0.5;entryDx=0;entryDy=0;" edge="1" parent="1" source="-HtrZDxXVbjoKsawyvyA-7" target="-HtrZDxXVbjoKsawyvyA-9">
          <mxGeometry relative="1" as="geometry" />
        </mxCell>
        <mxCell id="-HtrZDxXVbjoKsawyvyA-7" value="Store the results" style="rounded=0;whiteSpace=wrap;html=1;fontSize=17;" vertex="1" parent="1">
          <mxGeometry x="-208" y="480" width="120" height="90" as="geometry" />
        </mxCell>
        <mxCell id="-HtrZDxXVbjoKsawyvyA-51" style="edgeStyle=orthogonalEdgeStyle;rounded=0;orthogonalLoop=1;jettySize=auto;html=1;entryX=1;entryY=0.5;entryDx=0;entryDy=0;" edge="1" parent="1" source="-HtrZDxXVbjoKsawyvyA-8" target="-HtrZDxXVbjoKsawyvyA-9">
          <mxGeometry relative="1" as="geometry" />
        </mxCell>
        <mxCell id="-HtrZDxXVbjoKsawyvyA-8" value="Store the results" style="rounded=0;whiteSpace=wrap;html=1;fontSize=17;" vertex="1" parent="1">
          <mxGeometry x="-8" y="480" width="120" height="90" as="geometry" />
        </mxCell>
        <mxCell id="-HtrZDxXVbjoKsawyvyA-62" style="edgeStyle=orthogonalEdgeStyle;rounded=0;orthogonalLoop=1;jettySize=auto;html=1;" edge="1" parent="1" source="-HtrZDxXVbjoKsawyvyA-9" target="-HtrZDxXVbjoKsawyvyA-15">
          <mxGeometry relative="1" as="geometry">
            <Array as="points">
              <mxPoint x="-48" y="760" />
              <mxPoint x="103" y="760" />
            </Array>
          </mxGeometry>
        </mxCell>
        <mxCell id="-HtrZDxXVbjoKsawyvyA-9" value="Data processing" style="rounded=0;whiteSpace=wrap;html=1;fontSize=17;" vertex="1" parent="1">
          <mxGeometry x="-108" y="600" width="120" height="90" as="geometry" />
        </mxCell>
        <mxCell id="-HtrZDxXVbjoKsawyvyA-86" style="edgeStyle=orthogonalEdgeStyle;rounded=0;orthogonalLoop=1;jettySize=auto;html=1;entryX=0.5;entryY=0;entryDx=0;entryDy=0;" edge="1" parent="1" source="-HtrZDxXVbjoKsawyvyA-10" target="-HtrZDxXVbjoKsawyvyA-21">
          <mxGeometry relative="1" as="geometry">
            <Array as="points">
              <mxPoint x="720" y="645" />
            </Array>
          </mxGeometry>
        </mxCell>
        <mxCell id="-HtrZDxXVbjoKsawyvyA-99" style="edgeStyle=orthogonalEdgeStyle;rounded=0;orthogonalLoop=1;jettySize=auto;html=1;" edge="1" parent="1" source="-HtrZDxXVbjoKsawyvyA-10" target="-HtrZDxXVbjoKsawyvyA-22">
          <mxGeometry relative="1" as="geometry">
            <Array as="points">
              <mxPoint x="880" y="645" />
            </Array>
          </mxGeometry>
        </mxCell>
        <mxCell id="-HtrZDxXVbjoKsawyvyA-10" value="Data processing" style="rounded=0;whiteSpace=wrap;html=1;fontSize=17;" vertex="1" parent="1">
          <mxGeometry x="752" y="600" width="120" height="90" as="geometry" />
        </mxCell>
        <mxCell id="-HtrZDxXVbjoKsawyvyA-110" style="edgeStyle=orthogonalEdgeStyle;rounded=0;orthogonalLoop=1;jettySize=auto;html=1;entryX=0.5;entryY=0;entryDx=0;entryDy=0;" edge="1" parent="1" source="-HtrZDxXVbjoKsawyvyA-11" target="-HtrZDxXVbjoKsawyvyA-25">
          <mxGeometry relative="1" as="geometry">
            <Array as="points">
              <mxPoint x="1230" y="645" />
            </Array>
          </mxGeometry>
        </mxCell>
        <mxCell id="-HtrZDxXVbjoKsawyvyA-111" style="edgeStyle=orthogonalEdgeStyle;rounded=0;orthogonalLoop=1;jettySize=auto;html=1;entryX=0.5;entryY=0;entryDx=0;entryDy=0;" edge="1" parent="1" source="-HtrZDxXVbjoKsawyvyA-11" target="-HtrZDxXVbjoKsawyvyA-26">
          <mxGeometry relative="1" as="geometry">
            <Array as="points">
              <mxPoint x="1400" y="645" />
            </Array>
          </mxGeometry>
        </mxCell>
        <mxCell id="-HtrZDxXVbjoKsawyvyA-11" value="Data processing" style="rounded=0;whiteSpace=wrap;html=1;fontSize=17;" vertex="1" parent="1">
          <mxGeometry x="1250" y="600" width="120" height="90" as="geometry" />
        </mxCell>
        <mxCell id="-HtrZDxXVbjoKsawyvyA-80" style="edgeStyle=orthogonalEdgeStyle;rounded=0;orthogonalLoop=1;jettySize=auto;html=1;entryX=0.5;entryY=0;entryDx=0;entryDy=0;" edge="1" parent="1" source="-HtrZDxXVbjoKsawyvyA-12" target="-HtrZDxXVbjoKsawyvyA-77">
          <mxGeometry relative="1" as="geometry" />
        </mxCell>
        <mxCell id="-HtrZDxXVbjoKsawyvyA-127" style="edgeStyle=orthogonalEdgeStyle;rounded=0;orthogonalLoop=1;jettySize=auto;html=1;entryX=0;entryY=0.25;entryDx=0;entryDy=0;" edge="1" parent="1" source="-HtrZDxXVbjoKsawyvyA-12" target="-HtrZDxXVbjoKsawyvyA-2">
          <mxGeometry relative="1" as="geometry">
            <Array as="points">
              <mxPoint x="-310" y="890" />
              <mxPoint x="-310" y="190" />
            </Array>
          </mxGeometry>
        </mxCell>
        <mxCell id="-HtrZDxXVbjoKsawyvyA-12" value="Relative&amp;nbsp;&lt;div&gt;acceleration&lt;/div&gt;&lt;div&gt;&amp;gt;0.5&lt;/div&gt;" style="rhombus;whiteSpace=wrap;html=1;fontSize=17;" vertex="1" parent="1">
          <mxGeometry x="-260" y="830" width="120" height="120" as="geometry" />
        </mxCell>
        <mxCell id="-HtrZDxXVbjoKsawyvyA-78" style="edgeStyle=orthogonalEdgeStyle;rounded=0;orthogonalLoop=1;jettySize=auto;html=1;entryX=0.5;entryY=0;entryDx=0;entryDy=0;" edge="1" parent="1" source="-HtrZDxXVbjoKsawyvyA-13" target="-HtrZDxXVbjoKsawyvyA-76">
          <mxGeometry relative="1" as="geometry" />
        </mxCell>
        <mxCell id="-HtrZDxXVbjoKsawyvyA-73" style="edgeStyle=orthogonalEdgeStyle;rounded=0;orthogonalLoop=1;jettySize=auto;html=1;entryX=0.5;entryY=0;entryDx=0;entryDy=0;" edge="1" parent="1" source="-HtrZDxXVbjoKsawyvyA-15" target="-HtrZDxXVbjoKsawyvyA-68">
          <mxGeometry relative="1" as="geometry" />
        </mxCell>
        <mxCell id="-HtrZDxXVbjoKsawyvyA-84" style="edgeStyle=orthogonalEdgeStyle;rounded=0;orthogonalLoop=1;jettySize=auto;html=1;" edge="1" parent="1" source="-HtrZDxXVbjoKsawyvyA-15" target="-HtrZDxXVbjoKsawyvyA-13">
          <mxGeometry relative="1" as="geometry" />
        </mxCell>
        <mxCell id="-HtrZDxXVbjoKsawyvyA-15" value="Relative&amp;nbsp;&lt;div&gt;acceleration&lt;/div&gt;&lt;div&gt;&amp;gt;3&lt;/div&gt;" style="rhombus;whiteSpace=wrap;html=1;fontSize=17;" vertex="1" parent="1">
          <mxGeometry x="43" y="830" width="120" height="120" as="geometry" />
        </mxCell>
        <mxCell id="-HtrZDxXVbjoKsawyvyA-147" style="edgeStyle=orthogonalEdgeStyle;rounded=0;orthogonalLoop=1;jettySize=auto;html=1;entryX=0;entryY=0.5;entryDx=0;entryDy=0;" edge="1" parent="1" source="-HtrZDxXVbjoKsawyvyA-17" target="-HtrZDxXVbjoKsawyvyA-18">
          <mxGeometry relative="1" as="geometry">
            <Array as="points">
              <mxPoint x="-190" y="1320" />
            </Array>
          </mxGeometry>
        </mxCell>
        <mxCell id="-HtrZDxXVbjoKsawyvyA-17" value="Turn LED" style="rounded=0;whiteSpace=wrap;html=1;fontSize=17;" vertex="1" parent="1">
          <mxGeometry x="-245" y="1097" width="90" height="60" as="geometry" />
        </mxCell>
        <mxCell id="-HtrZDxXVbjoKsawyvyA-154" style="edgeStyle=orthogonalEdgeStyle;rounded=0;orthogonalLoop=1;jettySize=auto;html=1;entryX=0.5;entryY=0;entryDx=0;entryDy=0;" edge="1" parent="1" source="-HtrZDxXVbjoKsawyvyA-18" target="-HtrZDxXVbjoKsawyvyA-34">
          <mxGeometry relative="1" as="geometry" />
        </mxCell>
        <mxCell id="-HtrZDxXVbjoKsawyvyA-18" value="Buzzer" style="rounded=0;whiteSpace=wrap;html=1;fontSize=17;" vertex="1" parent="1">
          <mxGeometry x="490" y="1290" width="120" height="60" as="geometry" />
        </mxCell>
        <mxCell id="-HtrZDxXVbjoKsawyvyA-148" style="edgeStyle=orthogonalEdgeStyle;rounded=0;orthogonalLoop=1;jettySize=auto;html=1;entryX=0;entryY=0.5;entryDx=0;entryDy=0;" edge="1" parent="1" source="-HtrZDxXVbjoKsawyvyA-19" target="-HtrZDxXVbjoKsawyvyA-18">
          <mxGeometry relative="1" as="geometry">
            <Array as="points">
              <mxPoint x="-40" y="1320" />
            </Array>
          </mxGeometry>
        </mxCell>
        <mxCell id="-HtrZDxXVbjoKsawyvyA-19" value="Turn LED" style="rounded=0;whiteSpace=wrap;html=1;fontSize=17;" vertex="1" parent="1">
          <mxGeometry x="-93" y="1097" width="90" height="60" as="geometry" />
        </mxCell>
        <mxCell id="-HtrZDxXVbjoKsawyvyA-149" style="edgeStyle=orthogonalEdgeStyle;rounded=0;orthogonalLoop=1;jettySize=auto;html=1;entryX=0;entryY=0.5;entryDx=0;entryDy=0;" edge="1" parent="1" source="-HtrZDxXVbjoKsawyvyA-20" target="-HtrZDxXVbjoKsawyvyA-18">
          <mxGeometry relative="1" as="geometry">
            <Array as="points">
              <mxPoint x="110" y="1320" />
            </Array>
          </mxGeometry>
        </mxCell>
        <mxCell id="-HtrZDxXVbjoKsawyvyA-20" value="Turn LED" style="rounded=0;whiteSpace=wrap;html=1;fontSize=17;" vertex="1" parent="1">
          <mxGeometry x="58" y="1097" width="90" height="60" as="geometry" />
        </mxCell>
        <mxCell id="-HtrZDxXVbjoKsawyvyA-88" style="edgeStyle=orthogonalEdgeStyle;rounded=0;orthogonalLoop=1;jettySize=auto;html=1;entryX=0.5;entryY=0;entryDx=0;entryDy=0;" edge="1" parent="1" source="-HtrZDxXVbjoKsawyvyA-21" target="-HtrZDxXVbjoKsawyvyA-87">
          <mxGeometry relative="1" as="geometry" />
        </mxCell>
        <mxCell id="-HtrZDxXVbjoKsawyvyA-108" style="edgeStyle=orthogonalEdgeStyle;rounded=0;orthogonalLoop=1;jettySize=auto;html=1;entryX=0.5;entryY=1;entryDx=0;entryDy=0;" edge="1" parent="1" source="-HtrZDxXVbjoKsawyvyA-21" target="-HtrZDxXVbjoKsawyvyA-2">
          <mxGeometry relative="1" as="geometry" />
        </mxCell>
        <mxCell id="-HtrZDxXVbjoKsawyvyA-21" value="Temp&amp;lt;20" style="rhombus;whiteSpace=wrap;html=1;fontSize=17;" vertex="1" parent="1">
          <mxGeometry x="660" y="830" width="120" height="120" as="geometry" />
        </mxCell>
        <mxCell id="-HtrZDxXVbjoKsawyvyA-136" style="edgeStyle=orthogonalEdgeStyle;rounded=0;orthogonalLoop=1;jettySize=auto;html=1;entryX=1;entryY=0.25;entryDx=0;entryDy=0;" edge="1" parent="1" source="-HtrZDxXVbjoKsawyvyA-22" target="-HtrZDxXVbjoKsawyvyA-2">
          <mxGeometry relative="1" as="geometry">
            <Array as="points">
              <mxPoint x="1050" y="890" />
              <mxPoint x="1050" y="190" />
            </Array>
          </mxGeometry>
        </mxCell>
        <mxCell id="-HtrZDxXVbjoKsawyvyA-22" value="Temp&amp;gt;25" style="rhombus;whiteSpace=wrap;html=1;fontSize=17;" vertex="1" parent="1">
          <mxGeometry x="820" y="830" width="120" height="120" as="geometry" />
        </mxCell>
        <mxCell id="-HtrZDxXVbjoKsawyvyA-150" style="edgeStyle=orthogonalEdgeStyle;rounded=0;orthogonalLoop=1;jettySize=auto;html=1;entryX=1;entryY=0.5;entryDx=0;entryDy=0;" edge="1" parent="1" source="-HtrZDxXVbjoKsawyvyA-23" target="-HtrZDxXVbjoKsawyvyA-18">
          <mxGeometry relative="1" as="geometry">
            <Array as="points">
              <mxPoint x="720" y="1320" />
            </Array>
          </mxGeometry>
        </mxCell>
        <mxCell id="-HtrZDxXVbjoKsawyvyA-23" value="Turn LED" style="rounded=0;whiteSpace=wrap;html=1;fontSize=17;" vertex="1" parent="1">
          <mxGeometry x="675" y="1097" width="90" height="60" as="geometry" />
        </mxCell>
        <mxCell id="-HtrZDxXVbjoKsawyvyA-151" style="edgeStyle=orthogonalEdgeStyle;rounded=0;orthogonalLoop=1;jettySize=auto;html=1;entryX=1;entryY=0.5;entryDx=0;entryDy=0;" edge="1" parent="1" source="-HtrZDxXVbjoKsawyvyA-24" target="-HtrZDxXVbjoKsawyvyA-18">
          <mxGeometry relative="1" as="geometry">
            <Array as="points">
              <mxPoint x="880" y="1320" />
            </Array>
          </mxGeometry>
        </mxCell>
        <mxCell id="-HtrZDxXVbjoKsawyvyA-24" value="Turn LED" style="rounded=0;whiteSpace=wrap;html=1;fontSize=17;" vertex="1" parent="1">
          <mxGeometry x="835" y="1097" width="90" height="60" as="geometry" />
        </mxCell>
        <mxCell id="-HtrZDxXVbjoKsawyvyA-139" style="edgeStyle=orthogonalEdgeStyle;rounded=0;orthogonalLoop=1;jettySize=auto;html=1;entryX=1;entryY=0.25;entryDx=0;entryDy=0;" edge="1" parent="1" source="-HtrZDxXVbjoKsawyvyA-25" target="-HtrZDxXVbjoKsawyvyA-2">
          <mxGeometry relative="1" as="geometry">
            <Array as="points">
              <mxPoint x="1050" y="890" />
              <mxPoint x="1050" y="190" />
            </Array>
          </mxGeometry>
        </mxCell>
        <mxCell id="-HtrZDxXVbjoKsawyvyA-25" value="RH&amp;lt;40%" style="rhombus;whiteSpace=wrap;html=1;fontSize=17;" vertex="1" parent="1">
          <mxGeometry x="1170" y="830" width="120" height="120" as="geometry" />
        </mxCell>
        <mxCell id="-HtrZDxXVbjoKsawyvyA-142" style="edgeStyle=orthogonalEdgeStyle;rounded=0;orthogonalLoop=1;jettySize=auto;html=1;" edge="1" parent="1" source="-HtrZDxXVbjoKsawyvyA-26" target="-HtrZDxXVbjoKsawyvyA-2">
          <mxGeometry relative="1" as="geometry">
            <Array as="points">
              <mxPoint x="1550" y="890" />
              <mxPoint x="1550" y="190" />
            </Array>
          </mxGeometry>
        </mxCell>
        <mxCell id="-HtrZDxXVbjoKsawyvyA-26" value="RH&amp;gt;60%" style="rhombus;whiteSpace=wrap;html=1;fontSize=17;" vertex="1" parent="1">
          <mxGeometry x="1340" y="830" width="120" height="120" as="geometry" />
        </mxCell>
        <mxCell id="-HtrZDxXVbjoKsawyvyA-152" style="edgeStyle=orthogonalEdgeStyle;rounded=0;orthogonalLoop=1;jettySize=auto;html=1;entryX=1;entryY=0.5;entryDx=0;entryDy=0;" edge="1" parent="1" source="-HtrZDxXVbjoKsawyvyA-27" target="-HtrZDxXVbjoKsawyvyA-18">
          <mxGeometry relative="1" as="geometry">
            <Array as="points">
              <mxPoint x="1230" y="1320" />
            </Array>
          </mxGeometry>
        </mxCell>
        <mxCell id="-HtrZDxXVbjoKsawyvyA-27" value="Turn LED" style="rounded=0;whiteSpace=wrap;html=1;fontSize=17;" vertex="1" parent="1">
          <mxGeometry x="1185" y="1097" width="90" height="60" as="geometry" />
        </mxCell>
        <mxCell id="-HtrZDxXVbjoKsawyvyA-153" style="edgeStyle=orthogonalEdgeStyle;rounded=0;orthogonalLoop=1;jettySize=auto;html=1;entryX=1;entryY=0.5;entryDx=0;entryDy=0;" edge="1" parent="1" source="-HtrZDxXVbjoKsawyvyA-28" target="-HtrZDxXVbjoKsawyvyA-18">
          <mxGeometry relative="1" as="geometry">
            <Array as="points">
              <mxPoint x="1400" y="1320" />
            </Array>
          </mxGeometry>
        </mxCell>
        <mxCell id="-HtrZDxXVbjoKsawyvyA-28" value="Turn LED" style="rounded=0;whiteSpace=wrap;html=1;fontSize=17;" vertex="1" parent="1">
          <mxGeometry x="1355" y="1097" width="90" height="60" as="geometry" />
        </mxCell>
        <mxCell id="-HtrZDxXVbjoKsawyvyA-34" value="END" style="ellipse;whiteSpace=wrap;html=1;" vertex="1" parent="1">
          <mxGeometry x="490" y="1391" width="120" height="120" as="geometry" />
        </mxCell>
        <mxCell id="-HtrZDxXVbjoKsawyvyA-70" style="edgeStyle=orthogonalEdgeStyle;rounded=0;orthogonalLoop=1;jettySize=auto;html=1;entryX=0.5;entryY=0;entryDx=0;entryDy=0;" edge="1" parent="1" source="-HtrZDxXVbjoKsawyvyA-68" target="-HtrZDxXVbjoKsawyvyA-20">
          <mxGeometry relative="1" as="geometry" />
        </mxCell>
        <mxCell id="-HtrZDxXVbjoKsawyvyA-68" value="&lt;font size=&quot;1&quot; style=&quot;&quot;&gt;&lt;b style=&quot;font-size: 16px;&quot;&gt;Yes&lt;/b&gt;&lt;/font&gt;" style="text;html=1;align=center;verticalAlign=middle;whiteSpace=wrap;rounded=0;" vertex="1" parent="1">
          <mxGeometry x="73" y="1010" width="60" height="30" as="geometry" />
        </mxCell>
        <mxCell id="-HtrZDxXVbjoKsawyvyA-79" style="edgeStyle=orthogonalEdgeStyle;rounded=0;orthogonalLoop=1;jettySize=auto;html=1;" edge="1" parent="1" source="-HtrZDxXVbjoKsawyvyA-76" target="-HtrZDxXVbjoKsawyvyA-19">
          <mxGeometry relative="1" as="geometry" />
        </mxCell>
        <mxCell id="-HtrZDxXVbjoKsawyvyA-76" value="&lt;font size=&quot;1&quot; style=&quot;&quot;&gt;&lt;b style=&quot;font-size: 16px;&quot;&gt;Yes&lt;/b&gt;&lt;/font&gt;" style="text;html=1;align=center;verticalAlign=middle;whiteSpace=wrap;rounded=0;" vertex="1" parent="1">
          <mxGeometry x="-78" y="1010" width="60" height="30" as="geometry" />
        </mxCell>
        <mxCell id="-HtrZDxXVbjoKsawyvyA-81" style="edgeStyle=orthogonalEdgeStyle;rounded=0;orthogonalLoop=1;jettySize=auto;html=1;" edge="1" parent="1" source="-HtrZDxXVbjoKsawyvyA-77" target="-HtrZDxXVbjoKsawyvyA-17">
          <mxGeometry relative="1" as="geometry" />
        </mxCell>
        <mxCell id="-HtrZDxXVbjoKsawyvyA-77" value="&lt;font size=&quot;1&quot; style=&quot;&quot;&gt;&lt;b style=&quot;font-size: 16px;&quot;&gt;Yes&lt;/b&gt;&lt;/font&gt;" style="text;html=1;align=center;verticalAlign=middle;whiteSpace=wrap;rounded=0;" vertex="1" parent="1">
          <mxGeometry x="-230" y="1010" width="60" height="30" as="geometry" />
        </mxCell>
        <mxCell id="-HtrZDxXVbjoKsawyvyA-85" value="" style="edgeStyle=orthogonalEdgeStyle;rounded=0;orthogonalLoop=1;jettySize=auto;html=1;" edge="1" parent="1" source="-HtrZDxXVbjoKsawyvyA-13" target="-HtrZDxXVbjoKsawyvyA-12">
          <mxGeometry relative="1" as="geometry" />
        </mxCell>
        <mxCell id="-HtrZDxXVbjoKsawyvyA-13" value="Relative&amp;nbsp;&lt;div&gt;acceleration&lt;/div&gt;&lt;div&gt;&amp;gt;1.5&lt;/div&gt;" style="rhombus;whiteSpace=wrap;html=1;fontSize=17;" vertex="1" parent="1">
          <mxGeometry x="-108" y="830" width="120" height="120" as="geometry" />
        </mxCell>
        <mxCell id="-HtrZDxXVbjoKsawyvyA-89" value="" style="edgeStyle=orthogonalEdgeStyle;rounded=0;orthogonalLoop=1;jettySize=auto;html=1;entryX=0.5;entryY=0;entryDx=0;entryDy=0;" edge="1" parent="1" source="-HtrZDxXVbjoKsawyvyA-87" target="-HtrZDxXVbjoKsawyvyA-23">
          <mxGeometry relative="1" as="geometry">
            <Array as="points">
              <mxPoint x="720" y="1097" />
            </Array>
          </mxGeometry>
        </mxCell>
        <mxCell id="-HtrZDxXVbjoKsawyvyA-87" value="&lt;font size=&quot;1&quot; style=&quot;&quot;&gt;&lt;b style=&quot;font-size: 16px;&quot;&gt;Yes&lt;/b&gt;&lt;/font&gt;" style="text;html=1;align=center;verticalAlign=middle;whiteSpace=wrap;rounded=0;" vertex="1" parent="1">
          <mxGeometry x="690" y="1010" width="60" height="30" as="geometry" />
        </mxCell>
        <mxCell id="-HtrZDxXVbjoKsawyvyA-90" style="edgeStyle=orthogonalEdgeStyle;rounded=0;orthogonalLoop=1;jettySize=auto;html=1;entryX=0.5;entryY=0;entryDx=0;entryDy=0;" edge="1" parent="1" target="-HtrZDxXVbjoKsawyvyA-92">
          <mxGeometry relative="1" as="geometry">
            <mxPoint x="880" y="950" as="sourcePoint" />
          </mxGeometry>
        </mxCell>
        <mxCell id="-HtrZDxXVbjoKsawyvyA-91" value="" style="edgeStyle=orthogonalEdgeStyle;rounded=0;orthogonalLoop=1;jettySize=auto;html=1;entryX=0.5;entryY=0;entryDx=0;entryDy=0;" edge="1" parent="1" source="-HtrZDxXVbjoKsawyvyA-92">
          <mxGeometry relative="1" as="geometry">
            <mxPoint x="880" y="1097" as="targetPoint" />
            <Array as="points">
              <mxPoint x="880" y="1097" />
            </Array>
          </mxGeometry>
        </mxCell>
        <mxCell id="-HtrZDxXVbjoKsawyvyA-92" value="&lt;font size=&quot;1&quot; style=&quot;&quot;&gt;&lt;b style=&quot;font-size: 16px;&quot;&gt;Yes&lt;/b&gt;&lt;/font&gt;" style="text;html=1;align=center;verticalAlign=middle;whiteSpace=wrap;rounded=0;" vertex="1" parent="1">
          <mxGeometry x="850" y="1010" width="60" height="30" as="geometry" />
        </mxCell>
        <mxCell id="-HtrZDxXVbjoKsawyvyA-93" style="edgeStyle=orthogonalEdgeStyle;rounded=0;orthogonalLoop=1;jettySize=auto;html=1;entryX=0.5;entryY=0;entryDx=0;entryDy=0;" edge="1" parent="1" target="-HtrZDxXVbjoKsawyvyA-95">
          <mxGeometry relative="1" as="geometry">
            <mxPoint x="1230" y="950" as="sourcePoint" />
          </mxGeometry>
        </mxCell>
        <mxCell id="-HtrZDxXVbjoKsawyvyA-94" value="" style="edgeStyle=orthogonalEdgeStyle;rounded=0;orthogonalLoop=1;jettySize=auto;html=1;entryX=0.5;entryY=0;entryDx=0;entryDy=0;" edge="1" parent="1" source="-HtrZDxXVbjoKsawyvyA-95">
          <mxGeometry relative="1" as="geometry">
            <mxPoint x="1230" y="1097" as="targetPoint" />
            <Array as="points">
              <mxPoint x="1230" y="1097" />
            </Array>
          </mxGeometry>
        </mxCell>
        <mxCell id="-HtrZDxXVbjoKsawyvyA-95" value="&lt;font size=&quot;1&quot; style=&quot;&quot;&gt;&lt;b style=&quot;font-size: 16px;&quot;&gt;Yes&lt;/b&gt;&lt;/font&gt;" style="text;html=1;align=center;verticalAlign=middle;whiteSpace=wrap;rounded=0;" vertex="1" parent="1">
          <mxGeometry x="1200" y="1010" width="60" height="30" as="geometry" />
        </mxCell>
        <mxCell id="-HtrZDxXVbjoKsawyvyA-96" style="edgeStyle=orthogonalEdgeStyle;rounded=0;orthogonalLoop=1;jettySize=auto;html=1;entryX=0.5;entryY=0;entryDx=0;entryDy=0;" edge="1" parent="1">
          <mxGeometry relative="1" as="geometry">
            <mxPoint x="1400" y="950" as="sourcePoint" />
            <mxPoint x="1400" y="1010" as="targetPoint" />
          </mxGeometry>
        </mxCell>
        <mxCell id="-HtrZDxXVbjoKsawyvyA-97" value="" style="edgeStyle=orthogonalEdgeStyle;rounded=0;orthogonalLoop=1;jettySize=auto;html=1;entryX=0.5;entryY=0;entryDx=0;entryDy=0;" edge="1" parent="1">
          <mxGeometry relative="1" as="geometry">
            <mxPoint x="1400" y="1097" as="targetPoint" />
            <Array as="points">
              <mxPoint x="1400" y="1097" />
            </Array>
            <mxPoint x="1400.000000000001" y="1040" as="sourcePoint" />
          </mxGeometry>
        </mxCell>
        <mxCell id="-HtrZDxXVbjoKsawyvyA-98" value="&lt;font size=&quot;1&quot; style=&quot;&quot;&gt;&lt;b style=&quot;font-size: 16px;&quot;&gt;Yes&lt;/b&gt;&lt;/font&gt;" style="text;html=1;align=center;verticalAlign=middle;whiteSpace=wrap;rounded=0;" vertex="1" parent="1">
          <mxGeometry x="1370" y="1010" width="60" height="30" as="geometry" />
        </mxCell>
        <mxCell id="-HtrZDxXVbjoKsawyvyA-104" value="&lt;span style=&quot;font-size: 16px;&quot;&gt;&lt;b&gt;No&lt;/b&gt;&lt;/span&gt;" style="text;html=1;align=center;verticalAlign=middle;whiteSpace=wrap;rounded=0;" vertex="1" parent="1">
          <mxGeometry x="-148" y="860" width="60" height="30" as="geometry" />
        </mxCell>
        <mxCell id="-HtrZDxXVbjoKsawyvyA-106" value="&lt;span style=&quot;font-size: 16px;&quot;&gt;&lt;b&gt;No&lt;/b&gt;&lt;/span&gt;" style="text;html=1;align=center;verticalAlign=middle;whiteSpace=wrap;rounded=0;" vertex="1" parent="1">
          <mxGeometry x="-3" y="860" width="60" height="30" as="geometry" />
        </mxCell>
        <mxCell id="-HtrZDxXVbjoKsawyvyA-109" value="&lt;span style=&quot;font-size: 16px;&quot;&gt;&lt;b&gt;No&lt;/b&gt;&lt;/span&gt;" style="text;html=1;align=center;verticalAlign=middle;whiteSpace=wrap;rounded=0;" vertex="1" parent="1">
          <mxGeometry x="600" y="870" width="60" height="30" as="geometry" />
        </mxCell>
        <mxCell id="-HtrZDxXVbjoKsawyvyA-114" value="&lt;span style=&quot;font-size: 16px;&quot;&gt;&lt;b&gt;No&lt;/b&gt;&lt;/span&gt;" style="text;html=1;align=center;verticalAlign=middle;whiteSpace=wrap;rounded=0;" vertex="1" parent="1">
          <mxGeometry x="930" y="860" width="60" height="30" as="geometry" />
        </mxCell>
        <mxCell id="-HtrZDxXVbjoKsawyvyA-128" value="&lt;span style=&quot;font-size: 16px;&quot;&gt;&lt;b&gt;No&lt;/b&gt;&lt;/span&gt;" style="text;html=1;align=center;verticalAlign=middle;whiteSpace=wrap;rounded=0;" vertex="1" parent="1">
          <mxGeometry x="-305" y="860" width="60" height="30" as="geometry" />
        </mxCell>
        <mxCell id="-HtrZDxXVbjoKsawyvyA-141" value="&lt;span style=&quot;font-size: 16px;&quot;&gt;&lt;b&gt;No&lt;/b&gt;&lt;/span&gt;" style="text;html=1;align=center;verticalAlign=middle;whiteSpace=wrap;rounded=0;" vertex="1" parent="1">
          <mxGeometry x="1110" y="860" width="60" height="30" as="geometry" />
        </mxCell>
        <mxCell id="-HtrZDxXVbjoKsawyvyA-143" value="&lt;span style=&quot;font-size: 16px;&quot;&gt;&lt;b&gt;No&lt;/b&gt;&lt;/span&gt;" style="text;html=1;align=center;verticalAlign=middle;whiteSpace=wrap;rounded=0;" vertex="1" parent="1">
          <mxGeometry x="1445" y="860" width="60" height="30" as="geometry" />
        </mxCell>
      </root>
    </mxGraphModel>
  </diagram>
</mxfile>
